<svg xmlns="http://www.w3.org/2000/svg" viewBox="69.76 87 1068.239 794.326"><path fill="#f5f8fc" d="m57.92,288.26c-5.42-92.97,49.47-177.03,122.82-204.36,47.12-17.56,107.71-12,150.81,13.62,65.17,38.74,41.45,94.28,102.05,129.03,60.75,34.84,107.04-8.11,177.91,25.65,75.54,35.98,94.31,118.77,96.63,129.83,17.84,85.01-30.17,175.19-113.79,220.39-118.22,63.9-274.09,19.77-319.69-48.09-25.3-37.65-11.02-74.22-51.48-104.19-37.84-28.02-73.39-13.1-106.56-38.47-21.71-16.6-52.38-48.09-58.7-123.42Z" transform="translate(98.65 -10.023) scale(1.31605)"/><g transform="translate(77.748 240.517) scale(.46962)"><path fill="#f2f2f2" d="M63.09 135.54c-1.54-1.54-3.68-2.49-6.03-2.49-4.71 0-8.53 3.81-8.53 8.51v17.48h17.06v-17.48c0-2.35-.95-4.48-2.5-6.02zm-.65 18.71h-10.77v-11.04c0-2.97 2.42-5.38 5.39-5.38 1.49 0 2.84.6 3.81 1.58.98.97 1.58 2.31 1.58 3.8v11.04zM406.04 135.54c-1.54-1.54-3.68-2.49-6.03-2.49-4.71 0-8.53 3.81-8.53 8.51v17.48h17.06v-17.48c0-2.35-.95-4.48-2.5-6.02zm-.65 18.71h-10.77v-11.04c0-2.97 2.42-5.38 5.39-5.38 1.49 0 2.84.6 3.81 1.58.98.97 1.58 2.31 1.58 3.8v11.04z"/><rect width="491.08" height="250.95" x="-17.01" y="146.05" fill="#7c4b33"/><rect width="464.15" height="218.69" x="-3.55" y="162.18" fill="#ffbc97"/><path d="m460.6,381.54H-3.55c-.37,0-.67-.3-.67-.67v-218.69c0-.37.3-.67.67-.67h464.15c.37,0,.67.3.67.67v218.69c0,.37-.3.67-.67.67Zm-463.48-1.34h462.8v-217.34H-2.87v217.34Z"/><path d="m461.05,162.85c-.15,0-.3-.05-.42-.15-.29-.23-.33-.66-.1-.95l11.67-14.34c.24-.29.66-.33.95-.1.29.23.33.66.1.95l-11.67,14.34c-.13.16-.33.25-.52.25Z"/><polygon fill="#f2f2f2" points="86.28 241.95 69.1 248.12 83.05 236.35 86.28 241.95 86.28 241.95"/><ellipse cx="83.07" cy="240" fill="#f90065" rx="6.18" ry="11.87" transform="rotate(-25.09 83.086 240.023)"/><path fill="#f90065" d="m98.52,237.45l-2.29,1.23-6.07,3.25c-2.36,1.26-5.3.3-6.45-2.11-.97-2.04-.33-4.49,1.51-5.8l6.21-4.42,1.83-1.3c1.85-1.29,4.41-.71,5.49,1.26l1.48,2.69c1.03,1.9.25,4.27-1.72,5.2Z"/><path fill="#ba0055" d="m98.52,237.45h0c-1.26.68-2.83.2-3.49-1.06l-2.53-4.81c-.6-1.14-.26-2.54.78-3.28h0c1.85-1.29,4.41-.71,5.49,1.26l1.48,2.69c1.03,1.9.25,4.27-1.72,5.2Z"/><polygon fill="#f2f2f2" points="63.84 281.38 46.66 287.55 60.6 275.78 63.84 281.38 63.84 281.38"/><ellipse cx="60.62" cy="279.44" fill="#32ce95" rx="6.18" ry="11.87" transform="rotate(-25.09 60.634 279.457)"/><path fill="#32ce95" d="m76.08,276.89l-2.29,1.23-6.07,3.25c-2.36,1.26-5.3.3-6.45-2.11-.97-2.04-.33-4.49,1.51-5.8l6.21-4.42,1.83-1.3c1.85-1.29,4.41-.71,5.49,1.26l1.48,2.69c1.03,1.9.25,4.27-1.72,5.2Z"/><path fill="#1aa069" d="m76.08,276.89h0c-1.26.68-2.83.2-3.49-1.06l-2.53-4.81c-.6-1.14-.26-2.54.78-3.28h0c1.85-1.29,4.41-.71,5.49,1.26l1.48,2.69c1.03,1.9.25,4.27-1.72,5.2Z"/><polygon fill="#f2f2f2" points="114.12 302.89 96.93 309.06 110.88 297.29 114.12 302.89 114.12 302.89"/><ellipse cx="110.9" cy="300.95" fill="#112e5b" rx="6.18" ry="11.87" transform="rotate(-25.09 110.911 300.974)"/><path fill="#112e5b" d="m126.35,298.4l-2.29,1.23-6.07,3.25c-2.36,1.26-5.3.3-6.45-2.11-.97-2.04-.33-4.49,1.51-5.8l6.21-4.42,1.83-1.3c1.85-1.29,4.41-.71,5.49,1.26l1.48,2.69c1.03,1.9.25,4.27-1.72,5.2Z"/><path fill="#0a1e3a" d="m126.35,298.4h0c-1.26.68-2.83.2-3.49-1.06l-2.53-4.81c-.6-1.14-.26-2.54.78-3.28h0c1.85-1.29,4.41-.71,5.49,1.26l1.48,2.69c1.03,1.9.25,4.27-1.72,5.2Z"/></g><g transform="translate(98.62 669.37) scale(.40864)"><rect width="239.6" height="5.6" x="-86.55" y="327.25" transform="rotate(-78.95 33.238 330.047)"/><rect width="5.6" height="239.6" x="288.14" y="210.25" transform="rotate(-11.05 291.025 330.135)"/><rect width="5.6" height="243.38" x="465.72" y="208.36" transform="rotate(-14.94 468.502 330.041)"/><path fill="#7c4b33" d="m17.13-.84h273.81v207.16H-.37V16.65C-.37,7,7.47-.84,17.13-.84Z"/><path fill="#562f20" d="m290.94-.84h186.42c9.65,0,17.49,7.84,17.49,17.49v189.67h-203.91V-.84h0Z"/><rect width="110.92" height="20.16" x="78.06" y="23.79" fill="#562f20"/><rect width="291.3" height="12.32" x="-.37" y="206.32" fill="#ffbc97"/><rect width="203.91" height="12.32" x="290.94" y="206.32" fill="#422117"/><rect width="412.3" height="5.6" x="42.77" y="280.22"/></g><g transform="translate(269.052 526.82) scale(1.05568)"><path fill="#7c4b33" d="M70.14 306.17h-23.8c-2.7 0-4.78-2.18-4.38-4.62l5.69-35.23c.32-1.98 2.19-3.44 4.38-3.44h16.21c2.36 0 4.31 1.69 4.43 3.83l1.9 35.23c.12 2.3-1.89 4.23-4.43 4.23zM613.62 306.17h23.8c2.7 0 4.78-2.18 4.38-4.62l-5.69-35.23c-.32-1.98-2.19-3.44-4.38-3.44h-16.21c-2.36 0-4.31 1.69-4.43 3.83l-1.9 35.23c-.12 2.3 1.89 4.23 4.43 4.23z"/><rect width="76.51" height="104.83" x="44.47" y="64.68" fill="#d8baa4"/><path fill="#ffede1" d="m27.98,64.68h19.39c11.79,0,21.36,9.57,21.36,21.36v188.3H27.98c-13.56,0-24.56-11.01-24.56-24.56V89.25c0-13.56,11.01-24.56,24.56-24.56Z"/><rect width="75.58" height="104.83" x="562.78" y="64.68" fill="#d8baa4"/><path fill="#ffede1" d="m636.38,64.68h19.39c13.56,0,24.56,11.01,24.56,24.56v160.53c0,13.56-11.01,24.56-24.56,24.56h-40.75V86.04c0-11.79,9.57-21.36,21.36-21.36Z"/><path fill="#f7e3d5" d="m122.7.17h205.8c7.38,0,13.38,6,13.38,13.38v122.85H109.32V13.55c0-7.38,6-13.38,13.38-13.38Z"/><path fill="#f7e3d5" d="m355.26.17h205.8c7.38,0,13.38,6,13.38,13.38v122.85h-232.56V13.55c0-7.38,6-13.38,13.38-13.38Z"/><rect width="546.3" height="82.76" x="68.73" y="191.58" fill="#f7e3d5"/><rect width="546.3" height="82.76" x="68.73" y="136.41" fill="#ffede1" rx="17.85" ry="17.85"/><rect width="1.11" height="103.98" x="341.32" y="13.12"/><rect width="1.11" height="62.81" x="341.32" y="154.02"/></g><g transform="translate(121.53 468.338) scale(.4506)"><path fill="#ffbc97" d="m287.13,441.28c.54,0,.8.64.43,1.03-2.51,2.63-6.05,4.26-9.98,4.26H18.73c-7.62,0-13.8-6.17-13.8-13.79v-23.9c0-7.61,6.18-13.79,13.8-13.79h258.86c4.13,0,7.84,1.81,10.36,4.69.21.24.04.61-.27.61h-66.59c-3.99,0-7.22,3.23-7.22,7.22v26.46c0,3.99,3.23,7.22,7.22,7.22h66.03Z"/><path fill="#b8c2d8" d="m305.06,352.28h-47.86v36.56h47.35c-2.46,3.77-6.72,6.25-11.55,6.25H34.13c-7.62,0-13.8-6.17-13.8-13.79v-23.9c0-7.61,6.18-13.79,13.8-13.79h258.86c5.53,0,10.31,3.26,12.51,7.96.15.33-.08.7-.44.7Z"/><rect width="12.04" height="50.51" x="82.44" y="344.1" fill="#ffcc83"/><path fill="#ffcc83" d="m257.21,359.5v22.13c0,3.99,3.23,7.22,7.22,7.22h39.87c-2.49,3.49-6.62,5.77-11.3,5.77h-34.67c-5.14,0-9.31-4.16-9.31-9.3v-31.91c0-5.14,4.17-9.3,9.31-9.3h34.67c5.48,0,10.22,3.13,12.44,7.67.11.23-.06.51-.32.51h-40.69c-3.99,0-7.22,3.23-7.22,7.22Z"/><path d="m293,343.02H34.13c-7.95,0-14.4,6.44-14.4,14.39v23.9c0,7.95,6.45,14.39,14.4,14.39h258.86c5.18,0,9.73-2.75,12.26-6.86h-1.44c-2.38,3.42-6.35,5.65-10.82,5.65H34.13c-7.29,0-13.2-5.9-13.2-13.19v-23.9c0-7.28,5.91-13.19,13.2-13.19h258.86c5.45,0,10.15,3.33,12.16,8.06h0c.63,0,1.04-.67.76-1.23-2.35-4.75-7.26-8.03-12.91-8.03Z"/><rect width="13.48" height="50.51" x="39.59" y="395.58" fill="#ffcc83"/><rect width="65.48" height="50.51" x="75.22" y="395.58" fill="#ffcc83"/><path d="m287.94,441.28c-.17,0-.34.08-.45.21-2.41,2.75-5.96,4.48-9.9,4.48H18.73c-7.29,0-13.2-5.9-13.2-13.19v-23.9c0-7.28,5.91-13.19,13.2-13.19h258.86c4.04,0,7.66,1.82,10.08,4.69h0c.63,0,.96-.75.53-1.22-2.63-2.87-6.42-4.67-10.61-4.67H18.73c-7.95,0-14.4,6.44-14.4,14.39v23.9c0,7.95,6.45,14.39,14.4,14.39h258.86c4.3,0,8.17-1.9,10.81-4.9.34-.39.05-1-.46-1h0Z"/><path fill="#efefef" d="m302.94,352.28v36.56h-38.52c-3.99,0-7.22-3.23-7.22-7.22v-22.13c0-3.98,3.24-7.22,7.22-7.22h38.52Z"/><path d="M302.94 357.95v1.16h-38.52c-.32 0-.58-.26-.58-.58s.26-.58.58-.58h38.52zM302.94 365.65v1.16h-38.52c-.32 0-.58-.26-.58-.58s.26-.58.58-.58h38.52zM302.94 373.35v1.16h-38.52c-.32 0-.58-.26-.58-.58s.26-.58.58-.58h38.52zM302.94 381.04v1.16h-38.52c-.32 0-.58-.26-.58-.58s.26-.58.58-.58h38.52z"/><path fill="#efefef" d="m284.65,400.39v40.89h-63.55c-3.99,0-7.22-3.23-7.22-7.22v-26.46c0-3.98,3.24-7.22,7.22-7.22h63.55Z"/><path d="M284.65 406.54v1.16h-59.7c-.32 0-.58-.26-.58-.58s.26-.58.58-.58h59.7zM284.65 415.2v1.16h-59.7c-.32 0-.58-.26-.58-.58s.26-.58.58-.58h59.7zM284.65 423.86v1.16h-59.7c-.32 0-.58-.26-.58-.58s.26-.58.58-.58h59.7zM284.65 432.52v1.16h-59.7c-.32 0-.58-.26-.58-.58s.26-.58.58-.58h59.7z"/><path fill="#f90065" d="m210.94,106.35s-1.11-19.89-14.37-15.47c-13.26,4.42-2.21,16.57,7.74,18.78,9.95,2.21,6.63-3.31,6.63-3.31Z"/><path fill="#f90065" d="M205.41 106.35s3.32-18.78 15.48-15.47 0 16.57-8.84 16.57-6.63-1.1-6.63-1.1zM202.09 106.35s-16.58-11.05-22.11-1.1 9.95 12.15 15.48 8.84c5.53-3.31 6.63-7.73 6.63-7.73z"/><path fill="#32ce95" d="m182.2,274.28s22.11-35.35,15.48-64.08c-6.63-28.72-17.69-48.61-44.22-48.61s-44.22,29.83-36.48,60.76c7.74,30.93,34.27,55.24,34.27,55.24l30.95-3.31Z"/><path fill="#32ce95" d="m191.04,201.36s-.82-32.9,11.05-47.5c14.37-17.68,34.27-20.99,47.53-6.63,13.26,14.36,2.21,46.4-7.74,58.55-9.95,12.15-33.16,26.51-55.27,22.1-22.11-4.42,4.42-26.51,4.42-26.51Z"/><path fill="#32ce95" d="m227.52,142.81s4.42-30.93-13.26-37.56c-17.69-6.63-29.85,11.05-23.21,25.41,6.63,14.36,24.32,18.78,24.32,18.78l12.16-6.63Z"/><path fill="#7c4b33" d="m129.6,265.44h70.92c4.53,0,8.2,3.67,8.2,8.2v45.68c0,12.94-10.51,23.45-23.45,23.45h-40.42c-12.94,0-23.45-10.51-23.45-23.45v-45.68c0-4.53,3.67-8.2,8.2-8.2Z"/><path d="M168.71 201.45c-.38 0-.72-.26-.81-.64-.73-3.07-.86-6.34-.4-9.45.07-.45.49-.76.94-.7.45.07.77.49.7.94-.43 2.91-.31 5.96.37 8.83.11.45-.17.89-.62 1-.06.02-.13.02-.19.02zM152.39 203.04c-.1 0-.2-.02-.3-.06l-8.46-3.33c-.43-.17-.64-.65-.47-1.07.17-.43.65-.63 1.08-.47l8.46 3.33c.43.17.64.65.47 1.07-.13.33-.44.53-.77.53zM139.64 233.1c-.08 0-.17-.01-.25-.04-3.96-1.27-8.25-1.71-12.39-1.27-.45.06-.86-.28-.91-.74-.05-.45.28-.86.74-.91 4.37-.47 8.89 0 13.07 1.34.44.14.68.61.54 1.04-.11.35-.44.58-.79.58zM162.81 238.33c-.12 0-.23-.02-.34-.07-3.44-1.56-6.37-4.03-8.49-7.16-.26-.38-.16-.89.22-1.15.38-.26.89-.16 1.15.22 1.95 2.87 4.65 5.14 7.81 6.58.42.19.6.68.41 1.1-.14.31-.44.49-.75.49zM218.63 198.54c-.13 0-.26-.03-.38-.09-3.08-1.58-5.65-4.14-7.23-7.22-.21-.41-.05-.91.36-1.12.41-.21.91-.05 1.12.36 1.42 2.77 3.73 5.08 6.51 6.5.41.21.57.71.36 1.12-.15.29-.44.45-.74.45zM229.16 183.48c-.35 0-.68-.23-.79-.58l-2.25-7.19c-.14-.44.11-.9.54-1.04.44-.14.9.11 1.04.54l2.25 7.19c.14.44-.11.9-.54 1.04-.08.03-.17.04-.25.04zM239.85 164.58s-.05 0-.07 0c-.46-.04-.79-.44-.76-.9.2-2.42-.32-4.93-1.48-7.06-.22-.4-.07-.91.33-1.12.41-.22.91-.07 1.12.33 1.31 2.41 1.91 5.25 1.68 7.99-.04.43-.4.76-.82.76zM212.44 158.05c-.19 0-.38-.06-.54-.2-.35-.3-.39-.82-.09-1.17l5.55-6.53c.3-.35.82-.39 1.17-.09.35.3.39.82.09 1.17l-5.55 6.53c-.16.19-.4.29-.63.29zM214.4 125.42c-.44 0-.8-.34-.83-.78l-.59-10.77c-.02-.46.33-.85.78-.87.44-.04.85.33.87.78l.59 10.77c.02.46-.32.85-.78.87-.02 0-.03 0-.05 0zM198.4 126.73c-.21 0-.42-.08-.59-.24l-3.59-3.59c-.32-.32-.32-.85 0-1.17s.85-.32 1.17 0l3.59 3.59c.32.32.32.85 0 1.17-.16.16-.37.24-.59.24zM213.09 137.5c-.17 0-.35-.05-.5-.17-.37-.27-.44-.79-.17-1.16l1.96-2.61c.27-.37.79-.44 1.16-.17.37.27.44.79.17 1.16l-1.96 2.61c-.16.22-.41.33-.66.33zM132.29 181.06c-.08 0-.16-.01-.24-.04-.44-.13-.68-.6-.55-1.04l1.96-6.36c.13-.44.6-.68 1.04-.55.44.13.68.6.55 1.04l-1.96 6.36c-.11.36-.44.58-.79.58zM184.32 235.9s-.08 0-.11 0c-.45-.06-.77-.48-.71-.93l1.01-7.34c.06-.45.48-.78.93-.71.45.06.77.48.71.93l-1.01 7.34c-.06.42-.41.72-.82.72zM162.65 256.92c-.11 0-.22-.02-.33-.07-2.34-1.01-4.92-1.5-7.48-1.4-.47 0-.84-.34-.86-.8-.02-.46.34-.84.8-.86 2.8-.1 5.63.43 8.19 1.54.42.18.62.67.44 1.09-.13.31-.44.5-.76.5z"/><path d="M192.12 183.92s-.07 0-.11 0c-.45-.06-.78-.47-.72-.93 1.72-13.5 5.14-23.47 10.16-29.65 6.28-7.72 13.68-12.89 21.42-14.95.45-.12.9.15 1.01.59.12.44-.15.9-.59 1.01-7.4 1.97-14.51 6.94-20.56 14.39-4.76 5.85-8.14 15.81-9.8 28.81-.05.42-.41.72-.82.72zM198.91 222.42c-.46 0-.83-.37-.83-.83 0-3.96-.42-7.73-1.22-11.2-3.37-14.59-7.43-24.91-12.77-32.47-.26-.37-.18-.89.2-1.15.38-.26.89-.18 1.16.2 5.47 7.74 9.61 18.24 13.03 33.05.83 3.6 1.26 7.49 1.26 11.57 0 .46-.37.83-.83.83h0z"/></g><g transform="translate(970.776 293.064) scale(.59949)"><rect width="15.12" height="715.53" x="142.11" y="208.62" fill="#ffbc97"/><path fill="#b8c2d8" d="m90.78,916.2h117.77c10.09,0,18.29,8.19,18.29,18.29H72.5c0-10.09,8.19-18.29,18.29-18.29Z"/><circle cx="70.11" cy="237.24" r="3.18" fill="#ffbc97"/><circle cx="70.11" cy="245.19" r="3.18" fill="#ffbc97"/><circle cx="70.11" cy="253.14" r="3.18" fill="#ffbc97"/><circle cx="70.11" cy="261.09" r="3.18" fill="#ffbc97"/><circle cx="70.11" cy="269.04" r="3.18" fill="#ffbc97"/><circle cx="70.11" cy="276.99" r="3.18" fill="#ffbc97"/><circle cx="70.11" cy="284.94" r="3.18" fill="#ffbc97"/><circle cx="70.11" cy="292.89" r="3.18" fill="#ffbc97"/><circle cx="70.11" cy="300.84" r="3.18" fill="#ffbc97"/><circle cx="70.11" cy="308.79" r="3.18" fill="#ffbc97"/><circle cx="70.11" cy="316.74" r="3.18" fill="#ffbc97"/><circle cx="70.11" cy="324.69" r="3.18" fill="#ffbc97"/><polygon fill="#ffbc97" points="75.68 345.36 65.34 345.36 67.72 330.26 72.5 330.26 75.68 345.36"/><polygon fill="#ffcc83" points="278.94 239.62 20.39 239.62 65.95 -.48 233.38 -.48 278.94 239.62"/><path d="M79.66 236.25s-.05 0-.07 0c-.33-.04-.57-.34-.54-.67L105.31 1.04c.04-.33.33-.58.67-.53.33.04.57.34.54.67l-26.25 234.54c-.03.31-.3.54-.6.54zM231.61 239.43c-.3 0-.57-.23-.6-.54L203.96 1.18c-.04-.33.2-.63.53-.67.32-.04.63.2.67.53l27.05 237.72c.04.33-.2.63-.53.67-.02 0-.05 0-.07 0zM145.69 236.25s-.02 0-.03 0c-.33-.02-.59-.3-.57-.64L157.81 1.08c.02-.34.32-.59.64-.57.33.02.59.3.57.64l-12.73 234.54c-.02.32-.29.57-.61.57zM226.83 935.09H72.5c-.33 0-.61-.27-.61-.61s.27-.61.61-.61h154.34c.33 0 .61.27.61.61s-.27.61-.61.61z"/></g><g transform="translate(595.956 350.325) scale(.60697)"><rect width="64.62" height="205.7" x="258.61" y="182.84" fill="#ffcc83" rx="32.31" ry="32.31" transform="rotate(20.56 290.95 285.71)"/><path fill="#ffcc83" d="m420.81,158.36l44.48,4.26c54.35,5.21,92.12,56.53,80.95,110.02l-30.46,145.94H246.43l44.44-208.03c2.37-11.11,10.4-20.16,21.14-23.84l69.1-23.68,39.7-4.67Z"/><path fill="#112e5b" d="m349.72,173.48s13.49,44.08,21.27,52.65c0,0,25.69-44.41,46.71-57.65,0,0-49.55,11.56-67.98,5Z"/><path fill="#fad0c9" d="m356.2,147.45s1.56,23.37-11.68,30.38c0,0-5.64,18.85,35.81,14.02,33.48-3.9,51.38-32.72,51.38-32.72,0,0-31.14-21.04-38.93-43.63,0,0-10.9-6.23-23.36-.78-12.46,5.45-16.35,19.48-13.23,32.72Z"/><path fill="#f90065" d="M370.21 226.14s48.97-67.43 38.89-86.3c0 0 10.94-4.07 22.62 19.3 0 0 5.45 16.36 5.45 22.59s-28.03 3.9-37.37 14.02c-9.34 10.13-23.36 27.27-29.58 30.38zM354.75 162.62s-5.56 26.12 15.46 62.73c0 0-14.01-20.26-20.24-21.04-3.85-.48-10.68-.96-15.33-1.26-2.58-.16-4.35-2.64-3.69-5.14 2.55-9.54 8.77-30.32 15.9-35.67 4.67-3.51 7.76-4.09 8.56-3.12 0 .78-.67 3.49-.67 3.49z"/><path fill="#fad0c9" d="m401.83,95.11c-3.7-3.17-8.64-4.05-13.34-2.86-8.81-19.07-25.91-26.79-43.03-20.75-18.53,6.54-30.05,26.73-22.06,49.39,7.99,22.66,16.76,40.23,35.28,33.68,10.38-3.66,21.61-14.11,28.09-26.58,6-1.97,12.21-5.98,15.56-9.89,6.15-7.19,5.93-17.49-.5-22.99Z"/><path d="m401.65,108.71c-3.28-3.32-7.6-5.7-12.16-6.69l.3-1.37c4.82,1.05,9.39,3.56,12.86,7.08l-.99.98Z"/><path fill="#fff" d="m397.51,104.52c-.16,2.21-.31,4.42-.47,6.63"/><rect width="6.64" height="1.4" x="393.95" y="107.13" transform="rotate(-85.94 397.284 107.827)"/><ellipse cx="355.66" cy="107.54" rx="2.22" ry="3.1" transform="rotate(-19.4 355.623 107.542)"/><ellipse cx="333.63" cy="114.54" rx="2.22" ry="3.1" transform="rotate(-19.4 333.596 114.525)"/><path d="M339.49 129.39l-.9-1.07c3.05-2.59 4.98-6.36 5.3-10.35.32-3.99-.98-8.02-3.58-11.07l1.06-.91c2.83 3.33 4.26 7.73 3.91 12.09-.35 4.36-2.46 8.48-5.79 11.31zM351.67 136.29l-.51-1.3c5.29-2.08 9.23-7.5 9.57-13.18l1.4.09c-.38 6.3-4.59 12.09-10.46 14.4z"/><path d="M358.92 155.23l-.47-1.32c10.3-3.64 21.43-14.19 27.7-26.24l.13-.25.27-.09c5.79-1.9 11.91-5.79 15.24-9.68 5.89-6.89 5.7-16.76-.42-22-3.39-2.91-8.03-3.9-12.72-2.72l-.56.14-.24-.53c-8.51-18.42-25.05-26.42-42.16-20.38l-.47-1.32c17.67-6.24 34.75 1.84 43.65 20.6 4.95-1.08 9.8.06 13.41 3.14 6.71 5.75 6.97 16.5.58 23.98-3.43 4.01-9.67 8.01-15.6 10.01-6.54 12.43-17.64 22.88-28.34 26.66zM457.4 265.9s6.23 13.87-18.68 63.65c-24.91 49.78-14.01-13.06-9.34-25.3 4.67-12.24 16.35-43.25 28.03-38.35z"/><polygon fill="#fff" points="375.66 236.42 368.65 236.42 369.59 225.2 370.99 225.2 375.66 236.42"/><path fill="#fad0c9" d="m336.73,287.69s-1.56,16.36,2.34,24.15c2.34,4.67,47.49,5.45,37.37-9.35-10.12-14.8-39.7-14.8-39.7-14.8Z"/><path fill="#fad0c9" d="m451.18,269.77l-62.41-28.14c-5.45-2.46-11.59-2.86-17.31-1.14-22.41,6.73-80.3,24.28-91.55,29.29-14.01,6.23-7.01,24.93,10.12,21.04,17.13-3.9,45.93-12.47,45.93-12.47,0,0,37.37,42.07,51.38,43.63s30.36-3.12,30.36-3.12c0,0,24.13-2.34,35.03-20.26,10.9-17.92-1.56-28.83-1.56-28.83Z"/><path d="M410.55 318.08c-12.95 0-26.08-6.11-33.82-16.46-.19-.26-.14-.62.12-.82.26-.19.62-.14.82.12 9.63 12.86 27.82 18.99 43.26 14.56.31-.09.63.09.72.4.09.31-.09.63-.4.72-3.47 1-7.08 1.47-10.7 1.47zM355.03 315.42c-.39 0-.77 0-1.16 0-6.85-.1-14.25-1.16-15.33-3.32-3.92-7.85-2.46-23.79-2.39-24.47.03-.3.28-.53.58-.53.07 0 7.56.02 16.18 1.86 8.01 1.71 18.67 5.39 24.01 13.19 1.7 2.49 2.03 4.73.99 6.68-2.61 4.87-13.31 6.58-22.87 6.58zm-17.76-27.14c-.22 2.88-1.06 16.53 2.32 23.3.61 1.22 6.12 2.55 14.3 2.67 9.76.15 20.67-1.65 22.99-5.96.82-1.53.51-3.37-.92-5.47-9.09-13.29-34.65-14.44-38.69-14.54z"/><path fill="#fad0c9" d="m347.63,250.29l-20.88,25.82c-3.16,3.91-2.82,9.59.8,13.08l16.97,16.42s5.45,3.12,11.68-3.12c0,0,14.01,7.01,24.91-1.56,0,0,19.46,7.01,28.03-7.79,8.56-14.8-13.23-12.47-13.23-12.47l-6.23-9.35,5.45-12.47"/><path d="m348.03,306.95c-2.28,0-3.77-.82-3.8-.83-.04-.02-.08-.05-.12-.09l-16.97-16.42c-3.86-3.73-4.22-9.69-.84-13.87l14.24-17.6c.2-.25.57-.29.82-.09.25.2.29.57.09.82l-14.24,17.6c-2.99,3.7-2.67,8.98.75,12.29l16.91,16.36c.6.31,5.37,2.5,10.92-3.05.18-.18.45-.22.67-.11.14.07,13.82,6.74,24.29-1.5.16-.12.37-.16.56-.09.19.07,19.11,6.67,27.32-7.53,2.05-3.54,2.45-6.31,1.21-8.23-2.91-4.48-13.77-3.37-13.87-3.36-.22.02-.43-.08-.55-.26l-6.23-9.35c-.11-.17-.13-.38-.05-.56l5.45-12.47c.13-.3.47-.43.77-.3.29.13.43.47.3.77l-5.32,12.17,5.86,8.79c2.01-.17,11.61-.72,14.62,3.92,1.51,2.32,1.11,5.5-1.18,9.45-8.11,14.02-25.86,8.97-28.42,8.15-10.01,7.62-22.57,2.64-24.9,1.6-3.12,2.99-6.08,3.76-8.29,3.76Z"/><path d="M381.11 301.52c-.2 0-.4-.1-.5-.29l-12.97-22.07c-1.74-2.96-2.1-6.52-.98-9.76l4.73-13.72c.11-.3.44-.47.74-.36.3.1.47.44.36.74l-4.73 13.72c-1.01 2.92-.69 6.13.88 8.79l12.97 22.07c.16.28.07.64-.21.8-.09.05-.19.08-.29.08zM356.2 303.07c-.19 0-.37-.09-.48-.26l-13.11-19.39c-3.01-4.45-2.91-10.36.23-14.7l7.77-10.74c.19-.26.55-.32.82-.13.26.19.32.55.13.82l-7.77 10.74c-2.86 3.95-2.95 9.32-.21 13.37l13.11 19.39c.18.27.11.63-.16.81-.1.07-.21.1-.33.1zM249.54 406.69s-.08 0-.12-.01c-.31-.07-.52-.38-.45-.69l42.82-200.23c.07-.32.39-.52.69-.45.31.07.52.38.45.69l-42.82 200.23c-.06.27-.3.46-.57.46z"/><path fill="#af92cb" d="m384.94,344.83l-169.49,22.9-73.84-87.96c-4.7-6.04-4.41-25.32,12.02-27.54l134.02-18.11c5.22-.71,10.43,1.42,13.66,5.58l83.62,105.12Z"/><path d="m215.18,368.42l-.23-.27-73.84-87.96c-2.74-3.53-3.97-11.5-1.21-18.27,1.67-4.09,5.39-9.21,13.65-10.32l134.02-18.11c5.43-.74,10.9,1.5,14.26,5.83l84.32,106.01-170.97,23.1Zm74.44-133.77c-.62,0-1.25.04-1.88.13l-134.02,18.11c-7.64,1.03-11.08,5.75-12.62,9.53-2.59,6.34-1.49,13.75,1.02,16.97l73.59,87.66,168-22.7-82.9-104.22c-2.7-3.47-6.86-5.47-11.19-5.47Z"/><path fill="#624e76" d="m370.05,346.73l-159.62,21.56-68.82-88.52c-4.7-6.04-1.08-14.9,6.5-15.92l134.1-18.12c5.22-.71,10.43,1.42,13.66,5.58l74.18,95.41Z"/><path d="m210.15,368.99l-69.05-88.82c-2.35-3.02-2.89-6.94-1.44-10.49s4.57-5.97,8.36-6.48l134.1-18.12c5.43-.73,10.9,1.5,14.26,5.83l74.87,96.3-1.12.15-159.99,21.61Zm74.02-122.74c-.62,0-1.25.04-1.88.13l-134.1,18.12c-3.33.45-6.07,2.57-7.34,5.68-1.27,3.11-.8,6.55,1.26,9.2l68.59,88.23,158.13-21.36-73.49-94.52c-2.69-3.47-6.86-5.47-11.19-5.47Z"/><polygon fill="#90d8e0" points="310.27 354.65 153.77 375.8 182.24 328.72 338.74 307.58 310.27 354.65"/><path d="m152.53,376.61l29.32-48.48.3-.04,157.82-21.32-29.32,48.48-.3.04-157.82,21.32Zm30.1-47.29l-27.62,45.66,154.87-20.92,27.62-45.66-154.87,20.92Z"/><polygon points="310.27 354.65 338.74 307.58 370.05 346.73 310.27 354.65"/><ellipse cx="232.08" cy="293.17" fill="#fff" rx="13.36" ry="19.19" transform="rotate(-63.26 232.109 293.176)"/><path d="M237.27 308.41c-8.63 0-18.11-5.34-22.07-12.78-2.14-4.02-2.39-8.07-.69-11.38 1.71-3.34 5.18-5.52 9.75-6.14 9.25-1.25 20.33 4.4 24.7 12.61h0c2.14 4.02 2.39 8.07.69 11.38-1.71 3.34-5.18 5.52-9.75 6.14-.86.12-1.74.17-2.63.17zm-10.35-29.46c-.85 0-1.69.05-2.52.17-4.24.57-7.43 2.56-8.98 5.6-1.54 3.01-1.3 6.72.68 10.44 4.18 7.85 14.79 13.27 23.66 12.07 4.24-.57 7.43-2.56 8.98-5.6 1.54-3.01 1.3-6.72-.68-10.44h0c-3.79-7.12-12.87-12.24-21.14-12.24zM348.71 309.17h0c-1.1.67-2.66.36-3.48-.7l-17.43-22.57c-.82-1.06-.59-2.46.51-3.14h0c1.1-.67 2.66-.36 3.48.7l17.43 22.57c.82 1.06.59 2.46-.51 3.14z"/><path fill="#fad0c9" d="m214.68,266.12c-5.19-1.71-10.29-.24-10.29-.24,2.42-3.33,1.53-6.53-.46-9.2-3.7-4.95-10.34-6.66-16.11-4.45-16.13,6.17-54.32,22.15-57.38,36.25-2.71,12.48,21.01,46.5,35.66,66,5.5-9.3,11.05-20.81,19.12-21.65,5.62-.36,31.72-2.5,32.42-10.85.78-9.35-36.49-4.52-36.49-4.52l26.28-10.12c2.38-.92,5.99-2.32,7.88-4.05,9.34-8.57,1.56-18.7-7.79-14.8l8.97-5.3c6.94-4.1,5.87-14.53-1.79-17.05Z"/><path d="M164.68 285.15c-.22 0-.43-.12-.53-.34-.14-.29-.01-.64.28-.78l39.7-18.7c.29-.14.64-.01.78.28.14.29.01.64-.28.78l-39.7 18.7c-.08.04-.16.06-.25.06zM174.02 304.63c-.22 0-.43-.12-.53-.34-.14-.29-.01-.64.28-.78l39.7-18.7c.29-.14.64-.01.78.28.14.29.01.64-.28.78l-39.7 18.7c-.08.04-.16.06-.25.06zM188.97 333.1c-.31 0-.57-.24-.58-.55-.02-.32.23-.6.55-.61 21.35-1.11 27.41-8.18 27.47-8.25.21-.25.57-.29.82-.08.25.2.29.57.08.82-.25.31-6.35 7.54-28.31 8.68-.01 0-.02 0-.03 0z"/><rect width="88.41" height="241.81" x="483" y="184.1" fill="#ffcc83" rx="44.2" ry="44.2" transform="rotate(-21.14 527.173 305)"/><path fill="#fad0c9" d="m593.22,401.76h0c-13.2,20.55-40.54,26.51-61.08,13.3l-120.9-95.81c-11.55-9.15-11.06-26.84.97-35.34l16.09-11.36c7.8-5.51,18.07-6.07,26.41-1.43l125.21,69.52c20.54,13.21,26.49,40.57,13.29,61.12Z"/><path fill="#ffcc83" d="m559.39,426.37c-14.47,4.14-111.96-62.58-134.11-77.92,2.28.16,6.45-4.94,13.44-18.9,24.91-49.78,18.68-63.65,18.68-63.65h0v-.02s94.99,35.06,131.04,81.88c36.05,46.82-12.7,73.94-29.05,78.61Z"/><path d="M544.19 309.98c-.11 0-.22-.03-.32-.1-38.6-25.26-83.5-42.28-86.52-43.4-.17-.01-.33-.1-.43-.24-.11-.15-.14-.35-.08-.52.05-.15.16-.29.3-.36s.31-.09.46-.03c.47.17 47.03 17.49 86.91 43.58.27.18.35.54.17.81-.11.17-.3.26-.49.26zM513.35 406.35c-.1 0-.2-.03-.3-.08-33.82-20.01-75.99-48.94-88.1-57.33-.27-.18-.33-.55-.15-.81.18-.26.55-.33.81-.15 12.11 8.39 54.25 37.3 88.03 57.29.28.16.37.52.21.8-.11.18-.3.29-.5.29z"/><path d="m465.53,268.58c-.23,0-.46-.14-.54-.37l-7.17-18.58c-6.5-16.84-2.32-35.83,10.64-48.39.23-.22.6-.22.83.01.22.23.22.6-.01.83-12.63,12.23-16.7,30.72-10.37,47.12l7.17,18.58c.12.3-.03.64-.33.76-.07.03-.14.04-.21.04Z"/><path fill="#b8c2d8" d="m515.79,418.58H211.22c-53.32,0-92.11,50.63-78.27,102.16l69.87,260.12s81.74,51.42,181.39,21.04c0,0-10.9-90.38-8.56-111.41,2.34-21.04,21.8-133.23,21.8-133.23l64.6,4.73h0c39.1,5.4,72.28-28.59,65.98-67.58l-12.25-75.83Z"/><path fill="#112e5b" d="m297.81,858.77H80.94c-4.39,0-8.37-1.92-11.25-5.02-2.87-3.1-4.66-7.39-4.66-12.12.03-.65.07-1.29.13-1.92,4.16-45.68,80.01-48.55,97.46-66.64,18.79-19.48,29.64-33.5,29.64-33.5,23.85-3.12,25.62,25.71,44.1,35.06,18.47,9.35,57.11,8.57,57.11,8.57l2.83,49.39,1.5,26.18Z"/><path d="m298.43,859.35H80.94c-4.41,0-8.56-1.85-11.68-5.2-3.1-3.35-4.81-7.8-4.81-12.52.03-.68.07-1.34.14-1.98,2.76-30.37,36.98-42.1,64.48-51.53,14.62-5.01,27.25-9.34,33.14-15.45,18.55-19.23,29.49-33.31,29.6-33.45l.15-.19.24-.03c14.52-1.89,20.98,7.64,27.81,17.73,4.55,6.72,9.25,13.66,16.62,17.39,18.13,9.18,56.45,8.51,56.84,8.51h.56s4.4,76.74,4.4,76.74Zm-105.85-119.24c-1.38,1.75-12.11,15.3-29.53,33.36-6.09,6.31-18.84,10.69-33.6,15.75-27.18,9.32-61,20.92-63.7,50.54-.06.62-.1,1.26-.13,1.9,0,4.4,1.6,8.57,4.5,11.7,2.89,3.11,6.74,4.83,10.82,4.83h216.25l-4.27-74.4c-2.24.02-10.89.04-21.12-.79-10.97-.89-26.07-2.98-35.7-7.85-7.64-3.87-12.43-10.94-17.06-17.78-6.59-9.73-12.81-18.92-26.46-17.25Z"/><path d="M297.81 858.77H80.94c-4.39 0-8.37-1.92-11.25-5.02-2.87-3.1-4.66-7.39-4.66-12.12.03-.65.07-1.29.13-1.92l231.14-7.11 1.5 26.18zM246.42 798.21c-.31 0-.57-.25-.58-.56l-11.57-306.62c-.65-17.09 5.62-33.19 17.64-45.34 12.02-12.15 28.08-18.57 45.13-18.11l187.62 5.22c.32 0 .58.28.57.6 0 .32-.3.57-.6.57l-187.62-5.22c-16.77-.46-32.48 5.84-44.27 17.76-11.79 11.92-17.94 27.72-17.31 44.48l11.57 306.62c.01.32-.24.59-.56.61 0 0-.02 0-.02 0z"/><path d="m390.45,600.69s-.06,0-.09,0c-.32-.05-.54-.35-.48-.67l12.46-77.91c.05-.32.35-.54.67-.48.32.05.54.35.48.67l-12.46,77.91c-.05.29-.29.49-.58.49Z"/><path d="m399.93,547.19c-.16,0-.33-.07-.44-.2-.21-.24-.18-.61.06-.82,11.41-9.81,18.7-24.03,20-39.03.03-.32.32-.56.63-.53.32.03.56.31.53.63-1.32,15.3-8.76,29.81-20.4,39.81-.11.09-.25.14-.38.14Z"/><path fill="#7c4b33" d="m379.46,108.88c-.24.9-1.53.92-1.78.03-1.15-4.12-3.41-7.85-2.5-12.03.73-3.33.81-9.58-3.01-11.43-2.89-1.4-7.06,1.18-11.42,3.02-12.95,5.44-37.21,15.16-52.15,6.17-4.58-2.75-11.21-10.84-13.14-15.82-1.93-4.98-2.63-10.34-3.31-15.64,13.15,3.73,27.18,4.28,40.58,1.6,8.66-1.74,17.22-4.81,26.04-4.3s18.25,6.03,19.44,14.79c5.11-3.71,12.81-3.26,17.46,1.01,4.56,4.19,1.62,16.26,1.62,16.26-4.3-.96-9.31-.7-12.64,3.49-2.82,3.55-3.96,8.34-5.17,12.86Z"/><path fill="#112e5b" d="m400.9,850.97c-.65,11.97-1.88,22.59-1.88,22.59,0,0-196.97,1.56-227.33,0-12.21-.63-28-3.92-32.7-14.8-1.21-2.81-1.96-5.39-2.27-7.79-1.46-11.45,7.15-18.79,24.07-26.49,16.85-7.67,66.95-48.3,66.95-48.3,0,0,7.01-30.38,27.25-31.94s17.91,31.16,60.72,35.84c42.82,4.67,63.35-17.17,63.35-17.17,0,0,1.27,10.94,14.5,38.21,4.56,9.4,6.63,18.97,7.37,27.49.56,6.36.38,14.65-.04,22.37Z"/><path d="m400.9,850.97c-.65,11.97-1.88,22.59-1.88,22.59,0,0-196.97,1.56-227.33,0-12.21-.63-28-3.92-32.7-14.8-1.21-2.81-1.96-5.39-2.27-7.79h264.18Z"/><path d="m244.06,874.84c-33.7,0-62.33-.17-72.4-.69-10.19-.53-28.04-3.19-33.2-15.16-1.24-2.86-1.99-5.46-2.32-7.95-1.6-12.55,8.6-19.91,24.41-27.1,16.13-7.34,63.6-45.62,66.67-48.1.67-2.66,8.16-30.69,27.72-32.2,8.92-.69,13.51,4.94,19.32,12.07,7.66,9.41,17.18,21.11,41.52,23.77,21.99,2.4,37.92-2.36,47.42-6.78,10.26-4.77,15.39-10.15,15.44-10.21l.86-.91.15,1.25c.01.11,1.43,11.2,14.45,38.02,4.05,8.34,6.55,17.66,7.43,27.7.49,5.51.47,13.07-.04,22.45-.64,11.86-1.87,22.52-1.89,22.63l-.06.51h-.52c-1.31.01-88.11.69-154.96.69Zm12.29-130.07c-.43,0-.86.02-1.31.05-19.58,1.51-26.66,31.19-26.72,31.49l-.04.2-.16.13c-.5.41-50.36,40.77-67.08,48.38-18.38,8.36-25.04,15.62-23.73,25.88.31,2.37,1.04,4.87,2.23,7.63,4.91,11.38,22.28,13.94,32.19,14.45,29.24,1.5,215.51.09,226.77,0,.25-2.26,1.27-11.7,1.82-22.04h0c.51-9.33.52-16.83.04-22.29-.87-9.9-3.33-19.08-7.32-27.29-10.93-22.52-13.71-33.84-14.37-37.26-1.84,1.71-6.76,5.84-14.98,9.67-9.63,4.48-25.79,9.31-48.04,6.88-24.81-2.71-34.51-14.62-42.3-24.19-5.29-6.49-9.52-11.7-17.01-11.7Z"/></g></svg>